<?xml version="1.0" encoding="utf-8"?>
<!-- Generator: Adobe Illustrator 24.1.1, SVG Export Plug-In . SVG Version: 6.00 Build 0)  -->
<svg version="1.1" id="Layer_1" xmlns="http://www.w3.org/2000/svg" xmlns:xlink="http://www.w3.org/1999/xlink" x="0px" y="0px"
	 viewBox="0 0 75 72" style="enable-background:new 0 0 75 72;" xml:space="preserve">
<style type="text/css">
	.st0{clip-path:url(#SVGID_2_);}
	.st1{fill:#057250;}
</style>
<g>
	<defs>
		<rect id="SVGID_1_" width="75" height="72"/>
	</defs>
	<clipPath id="SVGID_2_">
		<use xlink:href="#SVGID_1_"  style="overflow:visible;"/>
	</clipPath>
	<g id="instagram" class="st0">
		<g id="Grupo_2" transform="translate(7.37 6.271)">
			<path id="Caminho_8" class="st1" d="M42.5,20.9c-0.5-1.4-1.6-2.5-3-3c-0.9-0.3-1.9-0.5-2.9-0.5c-1.7-0.1-2.2-0.1-6.4-0.1
				s-4.7,0-6.4,0.1c-1,0-2,0.2-2.9,0.5c-1.4,0.5-2.5,1.6-3,3c-0.3,0.9-0.5,1.9-0.5,2.9c-0.1,1.7-0.1,2.2-0.1,6.4s0,4.7,0.1,6.4
				c0,1,0.2,2,0.5,2.9c0.5,1.4,1.6,2.5,3,3c0.9,0.3,1.9,0.5,2.9,0.5c1.7,0.1,2.2,0.1,6.4,0.1s4.7,0,6.4-0.1c1,0,2-0.2,2.9-0.5
				c1.4-0.5,2.5-1.6,3-3c0.3-0.9,0.5-1.9,0.5-2.9c0.1-1.7,0.1-2.2,0.1-6.4s0-4.7-0.1-6.4C43,22.8,42.8,21.9,42.5,20.9L42.5,20.9z
				 M30.2,38.3c-4.5,0-8.1-3.6-8.1-8.1c0-4.5,3.6-8.1,8.1-8.1c4.5,0,8.1,3.6,8.1,8.1c0,0,0,0,0,0C38.3,34.7,34.7,38.3,30.2,38.3z
				 M38.6,23.7c-1,0-1.9-0.8-1.9-1.9c0-1,0.8-1.9,1.9-1.9c1,0,1.9,0.8,1.9,1.9c0,0,0,0,0,0C40.5,22.8,39.6,23.7,38.6,23.7
				C38.6,23.7,38.6,23.7,38.6,23.7L38.6,23.7z"/>
			<ellipse id="Elipse_5" class="st1" cx="30.2" cy="30.2" rx="5.2" ry="5.2"/>
			<path id="Caminho_9" class="st1" d="M30.2,0C13.5,0,0,13.5,0,30.2s13.5,30.2,30.2,30.2s30.2-13.5,30.2-30.2S46.9,0,30.2,0
				C30.2,0,30.2,0,30.2,0z M45.8,36.7c0,1.3-0.3,2.6-0.7,3.8c-0.8,2.1-2.5,3.8-4.6,4.6c-1.2,0.5-2.5,0.7-3.8,0.7
				c-1.7,0.1-2.2,0.1-6.5,0.1s-4.8,0-6.5-0.1c-1.3,0-2.6-0.3-3.8-0.7c-2.1-0.8-3.8-2.5-4.6-4.6c-0.5-1.2-0.7-2.5-0.7-3.8
				c-0.1-1.7-0.1-2.2-0.1-6.5s0-4.8,0.1-6.5c0-1.3,0.3-2.6,0.7-3.8c0.8-2.1,2.5-3.8,4.6-4.6c1.2-0.5,2.5-0.7,3.8-0.7
				c1.7-0.1,2.2-0.1,6.5-0.1s4.8,0,6.5,0.1c1.3,0,2.6,0.3,3.8,0.7c2.1,0.8,3.8,2.5,4.6,4.6c0.5,1.2,0.7,2.5,0.7,3.8
				c0.1,1.7,0.1,2.2,0.1,6.5S45.9,35,45.8,36.7L45.8,36.7z"/>
		</g>
	</g>
</g>
</svg>
