<?xml version="1.0" encoding="utf-8"?>
<!-- Generator: Adobe Illustrator 24.1.1, SVG Export Plug-In . SVG Version: 6.00 Build 0)  -->
<svg version="1.1" id="Layer_1" xmlns="http://www.w3.org/2000/svg" xmlns:xlink="http://www.w3.org/1999/xlink" x="0px" y="0px"
	 viewBox="0 0 224.78 126.38" style="enable-background:new 0 0 224.78 126.38;" xml:space="preserve">
<path id="ic_phone_forwarded_24px" d="M154.27,81.75c-6.31,0.01-12.57-0.99-18.57-2.96c-1.86-0.59-3.9-0.11-5.3,1.25l-11.43,11.43
	c-14.76-7.5-26.75-19.5-34.25-34.25l11.43-11.49c1.41-1.33,1.91-3.36,1.3-5.2c-1.97-5.99-2.97-12.25-2.96-18.56
	c-0.01-2.87-2.33-5.19-5.2-5.2H71.1c-2.87,0.01-5.19,2.33-5.2,5.2c0,48.8,39.55,88.36,88.34,88.36c0.01,0,0.01,0,0.02,0
	c2.87-0.01,5.19-2.33,5.2-5.2V86.95C159.45,84.08,157.13,81.76,154.27,81.75L154.27,81.75z"/>
</svg>
