<?xml version="1.0" encoding="UTF-8" standalone="no"?>
<svg
   xmlns:dc="http://purl.org/dc/elements/1.1/"
   xmlns:cc="http://creativecommons.org/ns#"
   xmlns:rdf="http://www.w3.org/1999/02/22-rdf-syntax-ns#"
   xmlns:svg="http://www.w3.org/2000/svg"
   xmlns="http://www.w3.org/2000/svg"
   xmlns:sodipodi="http://sodipodi.sourceforge.net/DTD/sodipodi-0.dtd"
   xmlns:inkscape="http://www.inkscape.org/namespaces/inkscape"
   version="1.1"
   id="Layer_1"
   x="0px"
   y="0px"
   viewBox="0 0 383.30308 82.138"
   xml:space="preserve"
   sodipodi:docname="re-cycle-logo.svg"
   width="383.30307"
   height="82.138"
   inkscape:version="1.0.1 (3bc2e813f5, 2020-09-07)"><metadata
   id="metadata21"><rdf:RDF><cc:Work
       rdf:about=""><dc:format>image/svg+xml</dc:format><dc:type
         rdf:resource="http://purl.org/dc/dcmitype/StillImage" /></cc:Work></rdf:RDF></metadata><defs
   id="defs19" /><sodipodi:namedview
   pagecolor="#ffffff"
   bordercolor="#666666"
   borderopacity="1"
   objecttolerance="10"
   gridtolerance="10"
   guidetolerance="10"
   inkscape:pageopacity="0"
   inkscape:pageshadow="2"
   inkscape:window-width="707"
   inkscape:window-height="480"
   id="namedview17"
   showgrid="false"
   inkscape:zoom="1.0893037"
   inkscape:cx="159.24755"
   inkscape:cy="41"
   inkscape:window-x="0"
   inkscape:window-y="0"
   inkscape:window-maximized="0"
   inkscape:current-layer="Layer_1" />
<style
   type="text/css"
   id="style2">
	.st0{fill:#057250;}
	.st1{font-family:'AdobeDevanagari-Regular';}
	.st2{font-size:64px;}
</style>
<g
   id="g14"
   transform="translate(-75.952445,-24)">
	<g
   id="Artboard_1">
		<g
   id="Component_2_1"
   transform="translate(6.09,24)">
			<text
   transform="translate(202.103,59.097)"
   class="st0 st1 st2"
   id="text4">re-cycle</text>
			<g
   id="Group_8"
   transform="translate(0.769)">
				<g
   id="Group_6"
   transform="translate(30.25)">
					<g
   id="Group_7">
						<ellipse
   id="Ellipse_1"
   class="st0"
   cx="102.5"
   cy="8.1000004"
   rx="7.6999998"
   ry="8.1000004" />
						<path
   id="Path_5"
   class="st0"
   d="m 93.3,15.7 c -2,-2.4 -5.2,-3.8 -8.5,0 -2.7,2.9 -12.6,13 -12.6,13.2 -3.1,3 -3.6,4.6 0,8.4 l 12.6,11.3 v 4.3 L 92,47.1 v -3.2 l -8,-8.7 c 0,0 9.1,-9 9.3,-9.7 5.7,10.3 22,11.7 22,11.7 v -8.4 c 0,0.1 -6.7,4.5 -22,-13.1 z" />
					</g>
				</g>
			</g>
			<path
   id="ic_all_inclusive_24px"
   class="st0"
   d="m 144.4,38.9 c -5.7,0 -11.1,2.2 -15.1,6.1 l -11.4,10.1 -6.1,5.4 v 0 L 101,70.1 c -5.3,5.3 -13.9,5.4 -19.2,0.1 -5.3,-5.3 -5.4,-13.9 -0.1,-19.3 2.6,-2.6 6,-4 9.7,-4 3.7,0 7.2,1.5 9.8,4.1 l 4.5,4 6.1,-5.4 -5.1,-4.4 c -8.4,-8.4 -22.1,-8.5 -30.5,0 -8.4,8.5 -8.5,22.1 0,30.5 8.4,8.4 21.9,8.5 30.4,0.2 l 11.4,-10 v 0 l 6.1,-5.5 v 0 l 10.6,-9.5 c 5.3,-5.3 13.9,-5.4 19.2,-0.1 5.3,5.3 5.4,13.9 0.1,19.2 -2.6,2.6 -6,4 -9.7,4 -3.7,0 -7.2,-1.5 -9.8,-4.1 l -4.6,-4.1 -6.1,5.4 5.1,4.5 c 8.4,8.5 22.1,8.6 30.6,0.2 8.5,-8.4 8.6,-22.1 0.2,-30.6 -4,-4.1 -9.5,-6.4 -15.3,-6.4 z" />
		</g>
	</g>
</g>
</svg>
