<?xml version="1.0" encoding="UTF-8" standalone="no"?>
<svg
   xmlns:dc="http://purl.org/dc/elements/1.1/"
   xmlns:cc="http://creativecommons.org/ns#"
   xmlns:rdf="http://www.w3.org/1999/02/22-rdf-syntax-ns#"
   xmlns:svg="http://www.w3.org/2000/svg"
   xmlns="http://www.w3.org/2000/svg"
   xmlns:sodipodi="http://sodipodi.sourceforge.net/DTD/sodipodi-0.dtd"
   xmlns:inkscape="http://www.inkscape.org/namespaces/inkscape"
   width="61"
   height="61"
   viewBox="0 0 61 61"
   version="1.1"
   id="svg11"
   sodipodi:docname="tour.svg"
   inkscape:version="1.0.1 (3bc2e813f5, 2020-09-07)">
  <metadata
     id="metadata15">
    <rdf:RDF>
      <cc:Work
         rdf:about="">
        <dc:format>image/svg+xml</dc:format>
        <dc:type
           rdf:resource="http://purl.org/dc/dcmitype/StillImage" />
      </cc:Work>
    </rdf:RDF>
  </metadata>
  <sodipodi:namedview
     pagecolor="#ffffff"
     bordercolor="#666666"
     borderopacity="1"
     objecttolerance="10"
     gridtolerance="10"
     guidetolerance="10"
     inkscape:pageopacity="0"
     inkscape:pageshadow="2"
     inkscape:window-width="687"
     inkscape:window-height="480"
     id="namedview13"
     showgrid="false"
     inkscape:zoom="4.2387439"
     inkscape:cx="30.5"
     inkscape:cy="30.5"
     inkscape:window-x="0"
     inkscape:window-y="0"
     inkscape:window-maximized="0"
     inkscape:current-layer="tour" />
  <defs
     id="defs5">
    <clipPath
       id="clip-tour">
      <rect
         width="61"
         height="61"
         id="rect2" />
    </clipPath>
  </defs>
  <g
     id="tour"
     clip-path="url(#clip-tour)">
    <path
       id="ic_directions_bike_24px"
       d="M31.277,9.572a4.036,4.036,0,1,0-4.036-4.036A4.048,4.048,0,0,0,31.277,9.572ZM10.089,22.688a10.089,10.089,0,0,0,0,20.179,10.089,10.089,0,0,0,0-20.179Zm0,17.152a7.063,7.063,0,0,1,0-14.125,7.063,7.063,0,0,1,0,14.125Zm11.7-20.179,4.843-4.843,1.614,1.614A14.137,14.137,0,0,0,38.542,20.67V16.634a10.025,10.025,0,0,1-7.264-3.027L27.443,9.773a4.948,4.948,0,0,0-3.229-1.211A3.386,3.386,0,0,0,21.39,9.773l-5.65,5.65a3.984,3.984,0,0,0-1.211,2.825,3.386,3.386,0,0,0,1.211,2.825l6.457,5.65V36.813h4.036V24.3ZM38.34,22.688A10.089,10.089,0,1,0,48.429,32.777,9.991,9.991,0,0,0,38.34,22.688Zm0,17.152A7.063,7.063,0,1,1,45.4,32.777,7.15,7.15,0,0,1,38.34,39.84Z"
       transform="translate(5.967 8.699)"
       fill="#057250" />
  </g>
</svg>
